# OBJ generated by ONSHAPE BY PTC INC, 1.221 Units = meters
mtllib carriage_left.mtl
usemtl 0.262745_0.282353_0.301961_0.000000_0.000000
v -0.01 0.0075 0.0146284 
v -0.01 0.003 0.0146284 
v -0.00999157 0.003 0.0148119 
v -0.00999157 0.0075 0.0148119 
v -0.00996635 0.003 0.0149937 
v -0.00996635 0.0075 0.0149937 
v -0.00992455 0.003 0.0151726 
v -0.00992455 0.0075 0.0151726 
v -0.00986653 0.003 0.0153468 
v -0.00986653 0.0075 0.0153468 
vn -1 0 0 
vn -1 0 0 
vn -0.995785 0 0.0917196 
vn -0.995785 0 0.0917196 
vn -0.983175 0 0.182666 
vn -0.983175 0 0.182666 
vn -0.962277 0 0.272072 
vn -0.962277 0 0.272072 
vn -0.933266 0 0.359185 
vn -0.933266 0 0.359185 
f 1//1 2//2 3//3 
f 4//4 3//3 5//5 
f 6//6 5//5 7//7 
f 8//8 7//7 9//9 
f 9//9 10//10 8//8 
f 7//7 8//8 6//6 
f 5//5 6//6 4//4 
f 3//3 4//4 1//1 
v -0.00587483 0.0075 0.0257184 
v -0.00986653 0.0075 0.0153468 
v -0.00986653 0.003 0.0153468 
v -0.00587483 0.003 0.0257184 
vn -0.933266 0 0.359185 
vn -0.933266 0 0.359185 
vn -0.933266 0 0.359185 
vn -0.933266 0 0.359185 
f 11//11 12//12 13//13 
f 13//13 14//14 11//11 
v -0.00587483 0.0075 0.0257184 
v -0.00587483 0.003 0.0257184 
v -0.00579354 0.003 0.0259016 
v -0.00579354 0.0075 0.0259016 
v -0.0056943 0.003 0.0260758 
v -0.0056943 0.0075 0.0260758 
v -0.00557812 0.003 0.0262392 
v -0.00557812 0.0075 0.0262392 
v -0.00544617 0.003 0.0263902 
v -0.00544617 0.0075 0.0263902 
v -0.00529977 0.003 0.0265271 
v -0.00529977 0.0075 0.0265271 
v -0.00514039 0.003 0.0266487 
v -0.00514039 0.0075 0.0266487 
v -0.00496964 0.003 0.0267538 
v -0.00496964 0.0075 0.0267538 
v -0.00478923 0.003 0.0268412 
v -0.00478923 0.0075 0.0268412 
v -0.00460097 0.003 0.0269102 
v -0.00460097 0.0075 0.0269102 
v -0.00440675 0.003 0.0269599 
v -0.00440675 0.0075 0.0269599 
v -0.00420853 0.003 0.02699 
v -0.00420853 0.0075 0.02699 
v -0.0040083 0.003 0.027 
v -0.0040083 0.0075 0.027 
vn -0.933266 0 0.359185 
vn -0.933266 0 0.359185 
vn -0.892617 0 0.450815 
vn -0.892617 0 0.450815 
vn -0.842999 0 0.537915 
vn -0.842999 0 0.537915 
vn -0.78491 0 0.619609 
vn -0.78491 0 0.619609 
vn -0.718934 0 0.695078 
vn -0.718934 0 0.695078 
vn -0.645734 0 0.763562 
vn -0.645734 0 0.763562 
vn -0.566045 0 0.824374 
vn -0.566045 0 0.824374 
vn -0.480669 0 0.876902 
vn -0.480669 0 0.876902 
vn -0.390462 0 0.920619 
vn -0.390462 0 0.920619 
vn -0.296333 0 0.955085 
vn -0.296333 0 0.955085 
vn -0.199225 0 0.979954 
vn -0.199225 0 0.979954 
vn -0.100115 0 0.994976 
vn -0.100115 0 0.994976 
vn 0 0 1 
vn 0 0 1 
f 15//15 16//16 17//17 
f 18//18 17//17 19//19 
f 20//20 19//19 21//21 
f 22//22 21//21 23//23 
f 24//24 23//23 25//25 
f 26//26 25//25 27//27 
f 28//28 27//27 29//29 
f 30//30 29//29 31//31 
f 32//32 31//31 33//33 
f 34//34 33//33 35//35 
f 36//36 35//35 37//37 
f 38//38 37//37 39//39 
f 39//39 40//40 38//38 
f 37//37 38//38 36//36 
f 35//35 36//36 34//34 
f 33//33 34//34 32//32 
f 31//31 32//32 30//30 
f 29//29 30//30 28//28 
f 27//27 28//28 26//26 
f 25//25 26//26 24//24 
f 23//23 24//24 22//22 
f 21//21 22//22 20//20 
f 19//19 20//20 18//18 
f 17//17 18//18 15//15 
v 0.0610753 0.0075 0.027 
v -0.0040083 0.0075 0.027 
v -0.0040083 0.003 0.027 
v 0.0610753 0.003 0.027 
vn 0 0 1 
vn 0 0 1 
vn 0 0 1 
vn 0 0 1 
f 41//41 42//42 43//43 
f 43//43 44//44 41//41 
v 0.0610753 0.0075 0.027 
v 0.0610753 0.003 0.027 
v 0.0614107 0.003 0.0269832 
v 0.0614107 0.0075 0.0269832 
v 0.0617427 0.003 0.0269328 
v 0.0617427 0.0075 0.0269328 
v 0.062068 0.003 0.0268495 
v 0.062068 0.0075 0.0268495 
v 0.0623834 0.003 0.0267341 
v 0.0623834 0.0075 0.0267341 
v 0.0626856 0.003 0.0265876 
v 0.0626856 0.0075 0.0265876 
v 0.0629716 0.003 0.0264117 
v 0.0629716 0.0075 0.0264117 
v 0.0632385 0.003 0.0262079 
v 0.0632385 0.0075 0.0262079 
v 0.0634838 0.003 0.0259785 
v 0.0634838 0.0075 0.0259785 
v 0.0637048 0.003 0.0257257 
v 0.0637048 0.0075 0.0257257 
v 0.0638994 0.003 0.025452 
v 0.0638994 0.0075 0.025452 
v 0.0640656 0.003 0.0251602 
v 0.0640656 0.0075 0.0251602 
v 0.0642018 0.003 0.0248533 
v 0.0642018 0.0075 0.0248533 
vn 0 0 1 
vn 0 0 1 
vn 0.100115 0 0.994976 
vn 0.100115 0 0.994976 
vn 0.199225 0 0.979954 
vn 0.199225 0 0.979954 
vn 0.296333 0 0.955085 
vn 0.296333 0 0.955085 
vn 0.390462 0 0.920619 
vn 0.390462 0 0.920619 
vn 0.480669 0 0.876902 
vn 0.480669 0 0.876902 
vn 0.566045 0 0.824374 
vn 0.566045 0 0.824374 
vn 0.645734 0 0.763562 
vn 0.645734 0 0.763562 
vn 0.718934 0 0.695078 
vn 0.718934 0 0.695078 
vn 0.78491 0 0.619609 
vn 0.78491 0 0.619609 
vn 0.842999 0 0.537915 
vn 0.842999 0 0.537915 
vn 0.892617 0 0.450815 
vn 0.892617 0 0.450815 
vn 0.933266 0 0.359185 
vn 0.933266 0 0.359185 
f 45//45 46//46 47//47 
f 48//48 47//47 49//49 
f 50//50 49//49 51//51 
f 52//52 51//51 53//53 
f 54//54 53//53 55//55 
f 56//56 55//55 57//57 
f 58//58 57//57 59//59 
f 60//60 59//59 61//61 
f 62//62 61//61 63//63 
f 64//64 63//63 65//65 
f 66//66 65//65 67//67 
f 68//68 67//67 69//69 
f 69//69 70//70 68//68 
f 67//67 68//68 66//66 
f 65//65 66//66 64//64 
f 63//63 64//64 62//62 
f 61//61 62//62 60//60 
f 59//59 60//60 58//58 
f 57//57 58//58 56//56 
f 55//55 56//56 54//54 
f 53//53 54//54 52//52 
f 51//51 52//52 50//50 
f 49//49 50//50 48//48 
f 47//47 48//48 45//45 
v 0.0642018 0.003 0.0248533 
v 0.0654718 0.003 0.0215533 
v 0.0654718 0.0075 0.0215533 
v 0.0642018 0.0075 0.0248533 
vn 0.933266 0 0.359185 
vn 0.933266 0 0.359185 
vn 0.933266 0 0.359185 
vn 0.933266 0 0.359185 
f 71//71 72//72 73//73 
f 73//73 74//74 71//71 
v 0.0654718 0.0075 0.0215533 
v 0.0654718 0.003 0.0215533 
v 0.065583 0.003 0.0212103 
v 0.065583 0.0075 0.0212103 
v 0.0656567 0.003 0.0208574 
v 0.0656567 0.0075 0.0208574 
v 0.0656921 0.003 0.0204986 
v 0.0656921 0.0075 0.0204986 
v 0.0656887 0.003 0.020138 
v 0.0656887 0.0075 0.020138 
v 0.0656465 0.003 0.01978 
v 0.0656465 0.0075 0.01978 
v 0.0655662 0.003 0.0194285 
v 0.0655662 0.0075 0.0194285 
v 0.0654485 0.003 0.0190877 
v 0.0654485 0.0075 0.0190877 
v 0.0652948 0.003 0.0187615 
v 0.0652948 0.0075 0.0187615 
v 0.065107 0.003 0.0184537 
v 0.065107 0.0075 0.0184537 
v 0.0648873 0.003 0.0181679 
v 0.0648873 0.0075 0.0181679 
v 0.064638 0.003 0.0179074 
v 0.064638 0.0075 0.0179074 
v 0.0643623 0.003 0.0176752 
v 0.0643623 0.0075 0.0176752 
v 0.0640631 0.003 0.0174739 
v 0.0640631 0.0075 0.0174739 
v 0.0637441 0.003 0.017306 
v 0.0637441 0.0075 0.017306 
v 0.0634088 0.003 0.0171733 
v 0.0634088 0.0075 0.0171733 
v 0.0630613 0.003 0.0170774 
v 0.0630613 0.0075 0.0170774 
v 0.0627054 0.003 0.0170194 
v 0.0627054 0.0075 0.0170194 
v 0.0623454 0.003 0.017 
v 0.0623454 0.0075 0.017 
vn 0.933266 0 0.359185 
vn 0.933266 0 0.359185 
vn 0.966463 0 0.256807 
vn 0.966463 0 0.256807 
vn 0.988464 0 0.151455 
vn 0.988464 0 0.151455 
vn 0.999016 0 0.0443482 
vn 0.999016 0 0.0443482 
vn 0.997996 0 -0.0632722 
vn 0.997996 0 -0.0632722 
vn 0.985416 0 -0.17016 
vn 0.985416 0 -0.17016 
vn 0.961422 0 -0.275076 
vn 0.961422 0 -0.275076 
vn 0.926292 0 -0.376807 
vn 0.926292 0 -0.376807 
vn 0.880432 0 -0.474172 
vn 0.880432 0 -0.474172 
vn 0.824374 0 -0.566045 
vn 0.824374 0 -0.566045 
vn 0.758767 0 -0.651362 
vn 0.758767 0 -0.651362 
vn 0.684371 0 -0.729134 
vn 0.684371 0 -0.729134 
vn 0.602048 0 -0.79846 
vn 0.602048 0 -0.79846 
vn 0.512751 0 -0.858537 
vn 0.512751 0 -0.858537 
vn 0.417515 0 -0.90867 
vn 0.417515 0 -0.90867 
vn 0.317443 0 -0.948277 
vn 0.317443 0 -0.948277 
vn 0.213694 0 -0.976901 
vn 0.213694 0 -0.976901 
vn 0.107469 0 -0.994208 
vn 0.107469 0 -0.994208 
vn 0 0 -1 
vn 0 0 -1 
f 75//75 76//76 77//77 
f 78//78 77//77 79//79 
f 80//80 79//79 81//81 
f 82//82 81//81 83//83 
f 84//84 83//83 85//85 
f 86//86 85//85 87//87 
f 88//88 87//87 89//89 
f 90//90 89//89 91//91 
f 92//92 91//91 93//93 
f 94//94 93//93 95//95 
f 96//96 95//95 97//97 
f 98//98 97//97 99//99 
f 100//100 99//99 101//101 
f 102//102 101//101 103//103 
f 104//104 103//103 105//105 
f 106//106 105//105 107//107 
f 108//108 107//107 109//109 
f 110//110 109//109 111//111 
f 111//111 112//112 110//110 
f 109//109 110//110 108//108 
f 107//107 108//108 106//106 
f 105//105 106//106 104//104 
f 103//103 104//104 102//102 
f 101//101 102//102 100//100 
f 99//99 100//100 98//98 
f 97//97 98//98 96//96 
f 95//95 96//96 94//94 
f 93//93 94//94 92//92 
f 91//91 92//92 90//90 
f 89//89 90//90 88//88 
f 87//87 88//88 86//86 
f 85//85 86//86 84//84 
f 83//83 84//84 82//82 
f 81//81 82//82 80//80 
f 79//79 80//80 78//78 
f 77//77 78//78 75//75 
v 0.0623454 0.0075 0.017 
v 0.0623454 0.003 0.017 
v 0.0372638 0.003 0.017 
v 0.0372638 0.0075 0.017 
vn 0 0 -1 
vn 0 0 -1 
vn 0 0 -1 
vn 0 0 -1 
f 113//113 114//114 115//115 
f 115//115 116//116 113//113 
v 0.0368544 0.0075 0.0169807 
v 0.0372638 0.0075 0.017 
v 0.0372638 0.003 0.017 
v 0.0364487 0.0075 0.016923 
v 0.0368544 0.003 0.0169807 
v 0.0360502 0.0075 0.0168273 
v 0.0364487 0.003 0.016923 
v 0.0356625 0.0075 0.0166945 
v 0.0360502 0.003 0.0168273 
v 0.0352889 0.0075 0.0165259 
v 0.0356625 0.003 0.0166945 
v 0.0349329 0.0075 0.0163228 
v 0.0352889 0.003 0.0165259 
v 0.0349329 0.003 0.0163228 
vn 0.0941079 0 -0.995562 
vn 0 0 -1 
vn 0 0 -1 
vn 0.18738 0 -0.982287 
vn 0.0941079 0 -0.995562 
vn 0.27899 0 -0.960294 
vn 0.18738 0 -0.982287 
vn 0.368123 0 -0.929777 
vn 0.27899 0 -0.960294 
vn 0.453988 0 -0.891008 
vn 0.368123 0 -0.929777 
vn 0.535824 0 -0.844329 
vn 0.453988 0 -0.891008 
vn 0.535824 0 -0.844329 
f 117//117 118//118 119//119 
f 120//120 117//117 121//121 
f 122//122 120//120 123//123 
f 124//124 122//122 125//125 
f 126//126 124//124 127//127 
f 128//128 126//126 129//129 
f 129//129 130//130 128//128 
f 127//127 129//129 126//126 
f 125//125 127//127 124//124 
f 123//123 125//125 122//122 
f 121//121 123//123 120//120 
f 119//119 121//121 117//117 
v 0.0349329 0.003 0.0163228 
v 0.0120192 0.003 0.00178139 
v 0.0120192 0.0075 0.00178139 
v 0.0349329 0.0075 0.0163228 
vn 0.535824 0 -0.844329 
vn 0.535824 0 -0.844329 
vn 0.535824 0 -0.844329 
vn 0.535824 0 -0.844329 
f 131//131 132//132 133//133 
f 133//133 134//134 131//131 
v 0.0116623 0.0075 0.00152892 
v 0.0120192 0.0075 0.00178139 
v 0.0120192 0.003 0.00178139 
v 0.0113326 0.0075 0.00124191 
v 0.0116623 0.003 0.00152892 
v 0.0110334 0.0075 0.000923259 
v 0.0113326 0.003 0.00124191 
v 0.0107676 0.0075 0.000576185 
v 0.0110334 0.003 0.000923259 
v 0.0105381 0.0075 0.000204193 
v 0.0107676 0.003 0.000576185 
v 0.010347 0.0075 -0.000188961 
v 0.0105381 0.003 0.000204193 
v 0.0101963 0.0075 -0.000599306 
v 0.010347 0.003 -0.000188961 
v 0.0100876 0.0075 -0.0010227 
v 0.0101963 0.003 -0.000599306 
v 0.010022 0.0075 -0.00145487 
v 0.0100876 0.003 -0.0010227 
v 0.01 0.0075 -0.00189144 
v 0.010022 0.003 -0.00145487 
v 0.01 0.003 -0.00189144 
vn 0.617858 0 -0.78629 
vn 0.535824 0 -0.844329 
vn 0.535824 0 -0.844329 
vn 0.693652 0 -0.720311 
vn 0.617858 0 -0.78629 
vn 0.762441 0 -0.647057 
vn 0.693652 0 -0.720311 
vn 0.823532 0 -0.56727 
vn 0.762441 0 -0.647057 
vn 0.876306 0 -0.481755 
vn 0.823532 0 -0.56727 
vn 0.920231 0 -0.391375 
vn 0.876306 0 -0.481755 
vn 0.954864 0 -0.297042 
vn 0.920231 0 -0.391375 
vn 0.979855 0 -0.199711 
vn 0.954864 0 -0.297042 
vn 0.994951 0 -0.100362 
vn 0.979855 0 -0.199711 
vn 1 0 0 
vn 0.994951 0 -0.100362 
vn 1 0 0 
f 135//135 136//136 137//137 
f 138//138 135//135 139//139 
f 140//140 138//138 141//141 
f 142//142 140//140 143//143 
f 144//144 142//142 145//145 
f 146//146 144//144 147//147 
f 148//148 146//146 149//149 
f 150//150 148//148 151//151 
f 152//152 150//150 153//153 
f 154//154 152//152 155//155 
f 155//155 156//156 154//154 
f 153//153 155//155 152//152 
f 151//151 153//153 150//150 
f 149//149 151//151 148//148 
f 147//147 149//149 146//146 
f 145//145 147//147 144//144 
f 143//143 145//145 142//142 
f 141//141 143//143 140//140 
f 139//139 141//141 138//138 
f 137//137 139//139 135//135 
v 0.0368544 0.003 0.0169807 
v 0.065583 0.003 0.0212103 
v 0.0654718 0.003 0.0215533 
v 0.0642018 0.003 0.0248533 
v 0.0364487 0.003 0.016923 
v 0.0652948 0.003 0.0187615 
v 0.0372638 0.003 0.017 
v 0.065107 0.003 0.0184537 
v 0.0656567 0.003 0.0208574 
v 0.0648873 0.003 0.0181679 
v 0.0656921 0.003 0.0204986 
v 0.00993444 0.003 0.0126237 
v 0.0623834 0.003 0.0267341 
v 0.062068 0.003 0.0268495 
v -0.007 0.003 0.015 
v -0.00514039 0.003 0.0266487 
v -0.00529977 0.003 0.0265271 
v -0.00478923 0.003 0.0268412 
v -0.00496964 0.003 0.0267538 
v -0.00420853 0.003 0.02699 
v -0.00440675 0.003 0.0269599 
v 0.064638 0.003 0.0179074 
v 0.0656887 0.003 0.020138 
v 0.0626856 0.003 0.0265876 
v 0.0637048 0.003 0.0257257 
v 0.0634838 0.003 0.0259785 
v -0.0056943 0.003 0.0260758 
v -0.00579354 0.003 0.0259016 
v -0.00544617 0.003 0.0263902 
v -0.00557812 0.003 0.0262392 
v -0.00460097 0.003 0.0269102 
v -0.00900739 0.003 0.0142294 
v -0.00999157 0.003 0.0148119 
v -0.01 0.003 0.0146284 
v 0.0634088 0.003 0.0171733 
v 0.0623454 0.003 0.017 
v 0.0627054 0.003 0.0170194 
v 0.0637441 0.003 0.017306 
v 0.0643623 0.003 0.0176752 
v 0.0656465 0.003 0.01978 
v 0.0614107 0.003 0.0269832 
v 0.0610753 0.003 0.027 
v 0.0629716 0.003 0.0264117 
v 0.0632385 0.003 0.0262079 
v -0.00996635 0.003 0.0149937 
v 0.0640631 0.003 0.0174739 
v 0.0655662 0.003 0.0194285 
v 0.0617427 0.003 0.0269328 
v 0.007 0.003 0.015 
v -0.0040083 0.003 0.027 
v -0.00986653 0.003 0.0153468 
v -0.0085 0.003 0.0145981 
v -0.00822021 0.003 0.0147406 
v -0.00876336 0.003 0.0144271 
v -0.00992455 0.003 0.0151726 
v 0.01 0.003 0.012 
v 0.0110334 0.003 0.000923259 
v 0.0113326 0.003 0.00124191 
v 0.0654485 0.003 0.0190877 
v 0.0640656 0.003 0.0251602 
v 0.0638994 0.003 0.025452 
v -0.00587483 0.003 0.0257184 
v -0.00922943 0.003 0.0140074 
v -0.00959808 0.003 0.0135 
v -0.00942705 0.003 0.0137634 
v 0.0107676 0.003 0.000576185 
v 0.0360502 0.003 0.0168273 
v 0.0352889 0.003 0.0165259 
v 0.0356625 0.003 0.0166945 
v 0.00998357 0.003 0.0123136 
v 0.0349329 0.003 0.0163228 
v -0.00731359 0.003 0.0149836 
v 0.0105381 0.003 0.000204193 
v 0.0101963 0.003 -0.000599306 
v 0.010347 0.003 -0.000188961 
v 0.01 0.003 -0.00189144 
v 0.010022 0.003 -0.00145487 
v 0.00922943 0.003 0.0140074 
v 0.00942705 0.003 0.0137634 
v 0.00876336 0.003 0.0144271 
v 0.00900739 0.003 0.0142294 
v -0.00985317 0.003 0.0129271 
v -0.00974064 0.003 0.0132202 
v 0.0100876 0.003 -0.0010227 
v 0.00974064 0.003 0.0132202 
v 0.00985317 0.003 0.0129271 
v 0.00822021 0.003 0.0147406 
v 0.0085 0.003 0.0145981 
v 0.00762374 0.003 0.0149344 
v 0.00792705 0.003 0.0148532 
v 0.00731359 0.003 0.0149836 
v 0.0116623 0.003 0.00152892 
v 0.0120192 0.003 0.00178139 
v -0.00762374 0.003 0.0149344 
v -0.00792705 0.003 0.0148532 
v 0.00959808 0.003 0.0135 
v 0.0630613 0.003 0.0170774 
v -0.00998357 0.003 0.0123136 
v -0.00993444 0.003 0.0126237 
v -0.01 0.003 0.012 
vn 0 -1 0 
vn 0 -1 0 
vn 0 -1 0 
vn 0 -1 0 
vn 0 -1 0 
vn 0 -1 0 
vn 0 -1 0 
vn 0 -1 0 
vn 0 -1 0 
vn 0 -1 0 
vn 0 -1 0 
vn 0 -1 0 
vn 0 -1 0 
vn 0 -1 0 
vn 0 -1 0 
vn 0 -1 0 
vn 0 -1 0 
vn 0 -1 0 
vn 0 -1 0 
vn 0 -1 0 
vn 0 -1 0 
vn 0 -1 0 
vn 0 -1 0 
vn 0 -1 0 
vn 0 -1 0 
vn 0 -1 0 
vn 0 -1 0 
vn 0 -1 0 
vn 0 -1 0 
vn 0 -1 0 
vn 0 -1 0 
vn 0 -1 0 
vn 0 -1 0 
vn 0 -1 0 
vn 0 -1 0 
vn 0 -1 0 
vn 0 -1 0 
vn 0 -1 0 
vn 0 -1 0 
vn 0 -1 0 
vn 0 -1 0 
vn 0 -1 0 
vn 0 -1 0 
vn 0 -1 0 
vn 0 -1 0 
vn 0 -1 0 
vn 0 -1 0 
vn 0 -1 0 
vn 0 -1 0 
vn 0 -1 0 
vn 0 -1 0 
vn 0 -1 0 
vn 0 -1 0 
vn 0 -1 0 
vn 0 -1 0 
vn 0 -1 0 
vn 0 -1 0 
vn 0 -1 0 
vn 0 -1 0 
vn 0 -1 0 
vn 0 -1 0 
vn 0 -1 0 
vn 0 -1 0 
vn 0 -1 0 
vn 0 -1 0 
vn 0 -1 0 
vn 0 -1 0 
vn 0 -1 0 
vn 0 -1 0 
vn 0 -1 0 
vn 0 -1 0 
vn 0 -1 0 
vn 0 -1 0 
vn 0 -1 0 
vn 0 -1 0 
vn 0 -1 0 
vn 0 -1 0 
vn 0 -1 0 
vn 0 -1 0 
vn 0 -1 0 
vn 0 -1 0 
vn 0 -1 0 
vn 0 -1 0 
vn 0 -1 0 
vn 0 -1 0 
vn 0 -1 0 
vn 0 -1 0 
vn 0 -1 0 
vn 0 -1 0 
vn 0 -1 0 
vn 0 -1 0 
vn 0 -1 0 
vn 0 -1 0 
vn 0 -1 0 
vn 0 -1 0 
vn 0 -1 0 
vn 0 -1 0 
vn 0 -1 0 
vn 0 -1 0 
vn 0 -1 0 
f 157//157 158//158 159//159 
f 160//160 161//161 157//157 
f 162//162 157//157 163//163 
f 159//159 160//160 157//157 
f 163//163 164//164 162//162 
f 157//157 165//165 158//158 
f 163//163 166//166 164//164 
f 157//157 167//167 165//165 
f 168//168 169//169 170//170 
f 171//171 172//172 173//173 
f 171//171 174//174 175//175 
f 171//171 176//176 177//177 
f 163//163 178//178 166//166 
f 157//157 179//179 167//167 
f 168//168 180//180 169//169 
f 168//168 181//181 182//182 
f 171//171 183//183 184//184 
f 171//171 185//185 186//186 
f 175//175 172//172 171//171 
f 177//177 187//187 171//171 
f 188//188 189//189 190//190 
f 191//191 192//192 193//193 
f 163//163 191//191 194//194 
f 163//163 195//195 178//178 
f 157//157 196//196 179//179 
f 168//168 197//197 198//198 
f 168//168 199//199 180//180 
f 182//182 200//200 168//168 
f 186//186 183//183 171//171 
f 187//187 174//174 171//171 
f 188//188 201//201 189//189 
f 191//191 163//163 192//192 
f 163//163 202//202 195//195 
f 157//157 203//203 196//196 
f 168//168 204//204 197//197 
f 200//200 199//199 168//168 
f 173//173 185//185 171//171 
f 171//171 205//205 206//206 
f 207//207 208//208 209//209 
f 210//210 207//207 211//211 
f 188//188 211//211 201//201 
f 212//212 213//213 214//214 
f 194//194 202//202 163//163 
f 157//157 215//215 203//203 
f 170//170 204//204 168//168 
f 168//168 216//216 217//217 
f 206//206 176//176 171//171 
f 209//209 218//218 207//207 
f 190//190 219//219 188//188 
f 190//190 220//220 221//221 
f 212//212 222//222 213//213 
f 157//157 162//162 215//215 
f 168//168 223//223 161//161 
f 168//168 224//224 225//225 
f 168//168 226//226 227//227 
f 217//217 181//181 168//168 
f 218//218 228//228 171//171 
f 207//207 210//210 208//208 
f 221//221 219//219 190//190 
f 212//212 229//229 222//222 
f 212//212 230//230 231//231 
f 212//212 232//232 233//233 
f 161//161 160//160 168//168 
f 227//227 224//224 168//168 
f 168//168 160//160 216//216 
f 198//198 234//234 235//235 
f 198//198 236//236 237//237 
f 184//184 218//218 171//171 
f 211//211 188//188 210//210 
f 190//190 238//238 239//239 
f 227//227 226//226 212//212 
f 231//231 229//229 212//212 
f 233//233 240//240 212//212 
f 225//225 223//223 168//168 
f 198//198 241//241 242//242 
f 237//237 234//234 198//198 
f 198//198 243//243 244//244 
f 206//206 245//245 246//246 
f 205//205 247//247 206//206 
f 239//239 220//220 190//190 
f 212//212 248//248 249//249 
f 240//240 230//230 212//212 
f 198//198 242//242 168//168 
f 244//244 236//236 198//198 
f 246//246 198//198 206//206 
f 218//218 250//250 228//228 
f 209//209 251//251 218//218 
f 214//214 248//248 212//212 
f 198//198 252//252 241//241 
f 246//246 243//243 198//198 
f 251//251 250//250 218//218 
f 193//193 253//253 191//191 
f 247//247 245//245 206//206 
f 235//235 252//252 198//198 
f 190//190 254//254 255//255 
f 255//255 238//238 190//190 
f 190//190 256//256 254//254 
f 212//212 249//249 227//227 
v 0.007 0.003 0.015 
v 0.007 0 0.015 
v 0.00731359 0 0.0149836 
v 0.00731359 0.003 0.0149836 
v 0.00762374 0 0.0149344 
v 0.00762374 0.003 0.0149344 
v 0.00792705 0 0.0148532 
v 0.00792705 0.003 0.0148532 
v 0.00822021 0 0.0147406 
v 0.00822021 0.003 0.0147406 
v 0.0085 0 0.0145981 
v 0.0085 0.003 0.0145981 
v 0.00876336 0 0.0144271 
v 0.00876336 0.003 0.0144271 
v 0.00900739 0 0.0142294 
v 0.00900739 0.003 0.0142294 
v 0.00922943 0 0.0140074 
v 0.00922943 0.003 0.0140074 
v 0.00942705 0 0.0137634 
v 0.00942705 0.003 0.0137634 
v 0.00959808 0 0.0135 
v 0.00959808 0.003 0.0135 
v 0.00974064 0 0.0132202 
v 0.00974064 0.003 0.0132202 
v 0.00985317 0 0.0129271 
v 0.00985317 0.003 0.0129271 
v 0.00993444 0 0.0126237 
v 0.00993444 0.003 0.0126237 
v 0.00998357 0 0.0123136 
v 0.00998357 0.003 0.0123136 
v 0.01 0 0.012 
v 0.01 0.003 0.012 
vn 0 0 1 
vn 0 0 1 
vn 0.104528 0 0.994522 
vn 0.104528 0 0.994522 
vn 0.207912 0 0.978148 
vn 0.207912 0 0.978148 
vn 0.309017 0 0.951057 
vn 0.309017 0 0.951057 
vn 0.406737 0 0.913545 
vn 0.406737 0 0.913545 
vn 0.5 0 0.866025 
vn 0.5 0 0.866025 
vn 0.587785 0 0.809017 
vn 0.587785 0 0.809017 
vn 0.669131 0 0.743145 
vn 0.669131 0 0.743145 
vn 0.743145 0 0.669131 
vn 0.743145 0 0.669131 
vn 0.809017 0 0.587785 
vn 0.809017 0 0.587785 
vn 0.866025 0 0.5 
vn 0.866025 0 0.5 
vn 0.913545 0 0.406737 
vn 0.913545 0 0.406737 
vn 0.951057 0 0.309017 
vn 0.951057 0 0.309017 
vn 0.978148 0 0.207912 
vn 0.978148 0 0.207912 
vn 0.994522 0 0.104528 
vn 0.994522 0 0.104528 
vn 1 0 0 
vn 1 0 0 
f 257//257 258//258 259//259 
f 260//260 259//259 261//261 
f 262//262 261//261 263//263 
f 264//264 263//263 265//265 
f 266//266 265//265 267//267 
f 268//268 267//267 269//269 
f 270//270 269//269 271//271 
f 272//272 271//271 273//273 
f 274//274 273//273 275//275 
f 276//276 275//275 277//277 
f 278//278 277//277 279//279 
f 280//280 279//279 281//281 
f 282//282 281//281 283//283 
f 284//284 283//283 285//285 
f 286//286 285//285 287//287 
f 287//287 288//288 286//286 
f 285//285 286//286 284//284 
f 283//283 284//284 282//282 
f 281//281 282//282 280//280 
f 279//279 280//280 278//278 
f 277//277 278//278 276//276 
f 275//275 276//276 274//274 
f 273//273 274//274 272//272 
f 271//271 272//272 270//270 
f 269//269 270//270 268//268 
f 267//267 268//268 266//266 
f 265//265 266//266 264//264 
f 263//263 264//264 262//262 
f 261//261 262//262 260//260 
f 259//259 260//260 257//257 
v 0.007 0.003 0.015 
v -0.007 0.003 0.015 
v -0.007 0 0.015 
v 0.007 0 0.015 
vn 0 0 1 
vn 0 0 1 
vn 0 0 1 
vn 0 0 1 
f 289//289 290//290 291//291 
f 291//291 292//292 289//289 
v -0.01 0.003 0.012 
v -0.01 0 0.012 
v -0.00998357 0 0.0123136 
v -0.00998357 0.003 0.0123136 
v -0.00993444 0 0.0126237 
v -0.00993444 0.003 0.0126237 
v -0.00985317 0 0.0129271 
v -0.00985317 0.003 0.0129271 
v -0.00974064 0 0.0132202 
v -0.00974064 0.003 0.0132202 
v -0.00959808 0 0.0135 
v -0.00959808 0.003 0.0135 
v -0.00942705 0 0.0137634 
v -0.00942705 0.003 0.0137634 
v -0.00922943 0 0.0140074 
v -0.00922943 0.003 0.0140074 
v -0.00900739 0 0.0142294 
v -0.00900739 0.003 0.0142294 
v -0.00876336 0 0.0144271 
v -0.00876336 0.003 0.0144271 
v -0.0085 0 0.0145981 
v -0.0085 0.003 0.0145981 
v -0.00822021 0 0.0147406 
v -0.00822021 0.003 0.0147406 
v -0.00792705 0 0.0148532 
v -0.00792705 0.003 0.0148532 
v -0.00762374 0 0.0149344 
v -0.00762374 0.003 0.0149344 
v -0.00731359 0 0.0149836 
v -0.00731359 0.003 0.0149836 
v -0.007 0 0.015 
v -0.007 0.003 0.015 
vn -1 0 0 
vn -1 0 0 
vn -0.994522 0 0.104528 
vn -0.994522 0 0.104528 
vn -0.978148 0 0.207912 
vn -0.978148 0 0.207912 
vn -0.951057 0 0.309017 
vn -0.951057 0 0.309017 
vn -0.913545 0 0.406737 
vn -0.913545 0 0.406737 
vn -0.866025 0 0.5 
vn -0.866025 0 0.5 
vn -0.809017 0 0.587785 
vn -0.809017 0 0.587785 
vn -0.743145 0 0.669131 
vn -0.743145 0 0.669131 
vn -0.669131 0 0.743145 
vn -0.669131 0 0.743145 
vn -0.587785 0 0.809017 
vn -0.587785 0 0.809017 
vn -0.5 0 0.866025 
vn -0.5 0 0.866025 
vn -0.406737 0 0.913545 
vn -0.406737 0 0.913545 
vn -0.309017 0 0.951057 
vn -0.309017 0 0.951057 
vn -0.207912 0 0.978148 
vn -0.207912 0 0.978148 
vn -0.104528 0 0.994522 
vn -0.104528 0 0.994522 
vn 0 0 1 
vn 0 0 1 
f 293//293 294//294 295//295 
f 296//296 295//295 297//297 
f 298//298 297//297 299//299 
f 300//300 299//299 301//301 
f 302//302 301//301 303//303 
f 304//304 303//303 305//305 
f 306//306 305//305 307//307 
f 308//308 307//307 309//309 
f 310//310 309//309 311//311 
f 312//312 311//311 313//313 
f 314//314 313//313 315//315 
f 316//316 315//315 317//317 
f 318//318 317//317 319//319 
f 320//320 319//319 321//321 
f 322//322 321//321 323//323 
f 323//323 324//324 322//322 
f 321//321 322//322 320//320 
f 319//319 320//320 318//318 
f 317//317 318//318 316//316 
f 315//315 316//316 314//314 
f 313//313 314//314 312//312 
f 311//311 312//312 310//310 
f 309//309 310//310 308//308 
f 307//307 308//308 306//306 
f 305//305 306//306 304//304 
f 303//303 304//304 302//302 
f 301//301 302//302 300//300 
f 299//299 300//300 298//298 
f 297//297 298//298 296//296 
f 295//295 296//296 293//293 
v 0.01 0 0.012 
v 0.01 0 -0.012 
v 0.01 0.003 -0.00189144 
v 0.01 0.0075 -0.012 
v 0.01 0.0075 -0.00189144 
v 0.01 0.003 0.012 
vn 1 0 0 
vn 1 0 0 
vn 1 0 0 
vn 1 0 0 
vn 1 0 0 
vn 1 0 0 
f 325//325 326//326 327//327 
f 328//328 329//329 327//327 
f 327//327 326//326 328//328 
f 327//327 330//330 325//325 
v -0.01 0.0075 0.0146284 
v -0.01 0.0075 -0.012 
v -0.01 0.003 0.012 
v -0.01 0 -0.012 
v -0.01 0 0.012 
v -0.01 0.003 0.0146284 
vn -1 0 0 
vn -1 0 0 
vn -1 0 0 
vn -1 0 0 
vn -1 0 0 
vn -1 0 0 
f 331//331 332//332 333//333 
f 334//334 335//335 333//333 
f 333//333 332//332 334//334 
f 333//333 336//336 331//331 
v 0.065107 0.0075 0.0184537 
v 0.0637441 0.0075 0.017306 
v 0.0634088 0.0075 0.0171733 
v 0.0640631 0.0075 0.0174739 
v 0.0648873 0.0075 0.0181679 
v 0.0630613 0.0075 0.0170774 
v 0.064638 0.0075 0.0179074 
v 0.0623454 0.0075 0.017 
v 0.065583 0.0075 0.0212103 
v 0.0656567 0.0075 0.0208574 
v -0.0085 0.0075 -0.0145981 
v -0.00762374 0.0075 -0.0149344 
v -0.00792705 0.0075 -0.0148532 
v 0.0627054 0.0075 0.0170194 
v 0.0643623 0.0075 0.0176752 
v 0.0656921 0.0075 0.0204986 
v 0.0656887 0.0075 0.020138 
v 0.0654718 0.0075 0.0215533 
v 0.0372638 0.0075 0.017 
v 0.0638994 0.0075 0.025452 
v 0.0640656 0.0075 0.0251602 
v -0.007 0.0075 -0.015 
v -0.00922943 0.0075 -0.0140074 
v -0.00942705 0.0075 -0.0137634 
v -0.00876336 0.0075 -0.0144271 
v -0.00900739 0.0075 -0.0142294 
v -0.00822021 0.0075 -0.0147406 
v -0.00731359 0.0075 -0.0149836 
v 0.00998357 0.0075 -0.0123136 
v 0.00876336 0.0075 -0.0144271 
v 0.0085 0.0075 -0.0145981 
v 0.00900739 0.0075 -0.0142294 
v 0.00974064 0.0075 -0.0132202 
v 0.00959808 0.0075 -0.0135 
v 0.0120192 0.0075 0.00178139 
v -0.00544617 0.0075 0.0263902 
v -0.00529977 0.0075 0.0265271 
v 0.0654485 0.0075 0.0190877 
v 0.0652948 0.0075 0.0187615 
v 0.0656465 0.0075 0.01978 
v 0.0655662 0.0075 0.0194285 
v 0.0637048 0.0075 0.0257257 
v 0.0632385 0.0075 0.0262079 
v 0.0634838 0.0075 0.0259785 
v 0.00822021 0.0075 -0.0147406 
v 0.00792705 0.0075 -0.0148532 
v 0.00942705 0.0075 -0.0137634 
v -0.00514039 0.0075 0.0266487 
v 0.0626856 0.0075 0.0265876 
v 0.0629716 0.0075 0.0264117 
v 0.0614107 0.0075 0.0269832 
v 0.0617427 0.0075 0.0269328 
v -0.00959808 0.0075 -0.0135 
v -0.00974064 0.0075 -0.0132202 
v 0.00762374 0.0075 -0.0149344 
v 0.00731359 0.0075 -0.0149836 
v 0.00985317 0.0075 -0.0129271 
v 0.00993444 0.0075 -0.0126237 
v -0.00496964 0.0075 0.0267538 
v -0.00420853 0.0075 0.02699 
v -0.0040083 0.0075 0.027 
v -0.00460097 0.0075 0.0269102 
v -0.00440675 0.0075 0.0269599 
v 0.062068 0.0075 0.0268495 
v -0.00985317 0.0075 -0.0129271 
v -0.00993444 0.0075 -0.0126237 
v -0.00557812 0.0075 0.0262392 
v 0.0116623 0.0075 0.00152892 
v -0.00587483 0.0075 0.0257184 
v 0.0623834 0.0075 0.0267341 
v 0.0610753 0.0075 0.027 
v 0.00922943 0.0075 -0.0140074 
v -0.0056943 0.0075 0.0260758 
v -0.00579354 0.0075 0.0259016 
v -0.00478923 0.0075 0.0268412 
v 0.0642018 0.0075 0.0248533 
v -0.00998357 0.0075 -0.0123136 
v 0.01 0.0075 -0.00189144 
v 0.007 0.0075 -0.015 
v 0.01 0.0075 -0.012 
v 0.0352889 0.0075 0.0165259 
v 0.0349329 0.0075 0.0163228 
v 0.0368544 0.0075 0.0169807 
v -0.01 0.0075 -0.012 
v -0.01 0.0075 0.0146284 
v 0.010022 0.0075 -0.00145487 
v 0.0107676 0.0075 0.000576185 
v 0.0105381 0.0075 0.000204193 
v 0.0110334 0.0075 0.000923259 
v -0.00996635 0.0075 0.0149937 
v -0.00992455 0.0075 0.0151726 
v -0.00999157 0.0075 0.0148119 
v 0.0113326 0.0075 0.00124191 
v -0.00986653 0.0075 0.0153468 
v 0.0356625 0.0075 0.0166945 
v 0.0101963 0.0075 -0.000599306 
v 0.0100876 0.0075 -0.0010227 
v 0.0360502 0.0075 0.0168273 
v 0.0364487 0.0075 0.016923 
v 0.010347 0.0075 -0.000188961 
vn 0 1 0 
vn 0 1 0 
vn 0 1 0 
vn 0 1 0 
vn 0 1 0 
vn 0 1 0 
vn 0 1 0 
vn 0 1 0 
vn 0 1 0 
vn 0 1 0 
vn 0 1 0 
vn 0 1 0 
vn 0 1 0 
vn 0 1 0 
vn 0 1 0 
vn 0 1 0 
vn 0 1 0 
vn 0 1 0 
vn 0 1 0 
vn 0 1 0 
vn 0 1 0 
vn 0 1 0 
vn 0 1 0 
vn 0 1 0 
vn 0 1 0 
vn 0 1 0 
vn 0 1 0 
vn 0 1 0 
vn 0 1 0 
vn 0 1 0 
vn 0 1 0 
vn 0 1 0 
vn 0 1 0 
vn 0 1 0 
vn 0 1 0 
vn 0 1 0 
vn 0 1 0 
vn 0 1 0 
vn 0 1 0 
vn 0 1 0 
vn 0 1 0 
vn 0 1 0 
vn 0 1 0 
vn 0 1 0 
vn 0 1 0 
vn 0 1 0 
vn 0 1 0 
vn 0 1 0 
vn 0 1 0 
vn 0 1 0 
vn 0 1 0 
vn 0 1 0 
vn 0 1 0 
vn 0 1 0 
vn 0 1 0 
vn 0 1 0 
vn 0 1 0 
vn 0 1 0 
vn 0 1 0 
vn 0 1 0 
vn 0 1 0 
vn 0 1 0 
vn 0 1 0 
vn 0 1 0 
vn 0 1 0 
vn 0 1 0 
vn 0 1 0 
vn 0 1 0 
vn 0 1 0 
vn 0 1 0 
vn 0 1 0 
vn 0 1 0 
vn 0 1 0 
vn 0 1 0 
vn 0 1 0 
vn 0 1 0 
vn 0 1 0 
vn 0 1 0 
vn 0 1 0 
vn 0 1 0 
vn 0 1 0 
vn 0 1 0 
vn 0 1 0 
vn 0 1 0 
vn 0 1 0 
vn 0 1 0 
vn 0 1 0 
vn 0 1 0 
vn 0 1 0 
vn 0 1 0 
vn 0 1 0 
vn 0 1 0 
vn 0 1 0 
vn 0 1 0 
vn 0 1 0 
vn 0 1 0 
vn 0 1 0 
vn 0 1 0 
vn 0 1 0 
vn 0 1 0 
f 337//337 338//338 339//339 
f 340//340 337//337 341//341 
f 339//339 342//342 337//337 
f 341//341 343//343 340//340 
f 344//344 345//345 346//346 
f 347//347 348//348 349//349 
f 342//342 350//350 337//337 
f 343//343 351//351 340//340 
f 344//344 352//352 353//353 
f 344//344 354//354 345//345 
f 355//355 356//356 357//357 
f 358//358 359//359 360//360 
f 358//358 361//361 362//362 
f 349//349 363//363 347//347 
f 361//361 358//358 364//364 
f 365//365 366//366 367//367 
f 368//368 369//369 370//370 
f 371//371 372//372 373//373 
f 340//340 338//338 337//337 
f 344//344 374//374 375//375 
f 344//344 376//376 377//377 
f 346//346 352//352 344//344 
f 355//355 378//378 356//356 
f 355//355 379//379 380//380 
f 362//362 359//359 358//358 
f 364//364 348//348 361//361 
f 365//365 381//381 382//382 
f 365//365 368//368 366//366 
f 370//370 383//383 368//368 
f 373//373 384//384 371//371 
f 375//375 337//337 344//344 
f 353//353 376//376 344//344 
f 380//380 378//378 355//355 
f 355//355 385//385 386//386 
f 355//355 387//387 388//388 
f 358//358 389//389 390//390 
f 347//347 361//361 348//348 
f 365//365 391//391 392//392 
f 367//367 381//381 365//365 
f 368//368 393//393 369//369 
f 368//368 365//365 394//394 
f 384//384 395//395 371//371 
f 371//371 396//396 397//397 
f 371//371 398//398 399//399 
f 377//377 374//374 344//344 
f 386//386 379//379 355//355 
f 388//388 400//400 355//355 
f 358//358 401//401 402//402 
f 360//360 389//389 358//358 
f 382//382 391//391 365//365 
f 394//394 393//393 368//368 
f 371//371 403//403 372//372 
f 371//371 404//404 405//405 
f 399//399 396//396 371//371 
f 350//350 344//344 337//337 
f 355//355 406//406 385//385 
f 355//355 407//407 387//387 
f 390//390 401//401 358//358 
f 383//383 408//408 368//368 
f 371//371 409//409 403//403 
f 405//405 410//410 371//371 
f 371//371 411//411 398//398 
f 355//355 412//412 354//354 
f 400//400 406//406 355//355 
f 402//402 413//413 358//358 
f 414//414 415//415 358//358 
f 415//415 416//416 365//365 
f 410//410 409//409 371//371 
f 397//397 417//417 418//418 
f 407//407 355//355 419//419 
f 357//357 412//412 355//355 
f 358//358 420//420 414//414 
f 415//415 414//414 416//416 
f 397//397 418//418 371//371 
f 344//344 355//355 354//354 
f 392//392 415//415 365//365 
f 420//420 421//421 422//422 
f 423//423 424//424 421//421 
f 425//425 426//426 427//427 
f 425//425 423//423 428//428 
f 429//429 425//425 430//430 
f 397//397 431//431 417//417 
f 419//419 397//397 407//407 
f 422//422 414//414 420//420 
f 421//421 432//432 433//433 
f 421//421 428//428 423//423 
f 428//428 426//426 425//425 
f 405//405 404//404 429//429 
f 397//397 434//434 431//431 
f 419//419 435//435 397//397 
f 433//433 422//422 421//421 
f 424//424 436//436 421//421 
f 430//430 405//405 429//429 
f 435//435 434//434 397//397 
f 436//436 432//432 421//421 
f 395//395 411//411 371//371 
f 427//427 430//430 425//425 
f 413//413 420//420 358//358 
v -0.0085 0 -0.0145981 
v -0.00762374 0 -0.0149344 
v -0.00731359 0 -0.0149836 
v -0.00822021 0 -0.0147406 
v -0.00792705 0 -0.0148532 
v -0.007 0 -0.015 
v -0.00922943 0 -0.0140074 
v -0.00900739 0 -0.0142294 
v -0.00959808 0 -0.0135 
v -0.00942705 0 -0.0137634 
v 0.00876336 0 0.0144271 
v 0.00792705 0 0.0148532 
v 0.00762374 0 0.0149344 
v 0.0085 0 0.0145981 
v 0.00822021 0 0.0147406 
v 0.00900739 0 -0.0142294 
v 0.00942705 0 -0.0137634 
v 0.00959808 0 -0.0135 
v 0.00998357 0 -0.0123136 
v 0.00822021 0 -0.0147406 
v 0.0085 0 -0.0145981 
v -0.00876336 0 -0.0144271 
v -0.00731359 0 0.0149836 
v -0.00762374 0 0.0149344 
v -0.00792705 0 0.0148532 
v 0.00731359 0 0.0149836 
v 0.00922943 0 0.0140074 
v 0.00900739 0 0.0142294 
v 0.007 0 0.015 
v 0.00974064 0 0.0132202 
v 0.00959808 0 0.0135 
v 0.00922943 0 -0.0140074 
v 0.00876336 0 -0.0144271 
v 0.00762374 0 -0.0149344 
v 0.00792705 0 -0.0148532 
v -0.00985317 0 -0.0129271 
v -0.00974064 0 -0.0132202 
v -0.00822021 0 0.0147406 
v 0.00985317 0 0.0129271 
v 0.00985317 0 -0.0129271 
v 0.00993444 0 -0.0126237 
v 0.00974064 0 -0.0132202 
v 0.007 0 -0.015 
v 0.00731359 0 -0.0149836 
v -0.00998357 0 -0.0123136 
v -0.00993444 0 -0.0126237 
v -0.007 0 0.015 
v -0.00985317 0 0.0129271 
v -0.00993444 0 0.0126237 
v -0.00959808 0 0.0135 
v -0.00974064 0 0.0132202 
v -0.00922943 0 0.0140074 
v -0.00942705 0 0.0137634 
v -0.0085 0 0.0145981 
v -0.00876336 0 0.0144271 
v 0.00942705 0 0.0137634 
v -0.00900739 0 0.0142294 
v 0.00998357 0 0.0123136 
v 0.00993444 0 0.0126237 
v -0.01 0 -0.012 
v -0.01 0 0.012 
v -0.00998357 0 0.0123136 
v 0.01 0 -0.012 
v 0.01 0 0.012 
vn 0 -1 0 
vn 0 -1 0 
vn 0 -1 0 
vn 0 -1 0 
vn 0 -1 0 
vn 0 -1 0 
vn 0 -1 0 
vn 0 -1 0 
vn 0 -1 0 
vn 0 -1 0 
vn 0 -1 0 
vn 0 -1 0 
vn 0 -1 0 
vn 0 -1 0 
vn 0 -1 0 
vn 0 -1 0 
vn 0 -1 0 
vn 0 -1 0 
vn 0 -1 0 
vn 0 -1 0 
vn 0 -1 0 
vn 0 -1 0 
vn 0 -1 0 
vn 0 -1 0 
vn 0 -1 0 
vn 0 -1 0 
vn 0 -1 0 
vn 0 -1 0 
vn 0 -1 0 
vn 0 -1 0 
vn 0 -1 0 
vn 0 -1 0 
vn 0 -1 0 
vn 0 -1 0 
vn 0 -1 0 
vn 0 -1 0 
vn 0 -1 0 
vn 0 -1 0 
vn 0 -1 0 
vn 0 -1 0 
vn 0 -1 0 
vn 0 -1 0 
vn 0 -1 0 
vn 0 -1 0 
vn 0 -1 0 
vn 0 -1 0 
vn 0 -1 0 
vn 0 -1 0 
vn 0 -1 0 
vn 0 -1 0 
vn 0 -1 0 
vn 0 -1 0 
vn 0 -1 0 
vn 0 -1 0 
vn 0 -1 0 
vn 0 -1 0 
vn 0 -1 0 
vn 0 -1 0 
vn 0 -1 0 
vn 0 -1 0 
vn 0 -1 0 
vn 0 -1 0 
vn 0 -1 0 
vn 0 -1 0 
f 437//437 438//438 439//439 
f 437//437 440//440 441//441 
f 441//441 438//438 437//437 
f 442//442 443//443 444//444 
f 442//442 445//445 446//446 
f 447//447 448//448 449//449 
f 447//447 450//450 451//451 
f 452//452 453//453 454//454 
f 455//455 456//456 457//457 
f 442//442 458//458 437//437 
f 446//446 443//443 442//442 
f 459//459 460//460 461//461 
f 451//451 448//448 447//447 
f 462//462 463//463 464//464 
f 465//465 466//466 467//467 
f 452//452 468//468 453//453 
f 457//457 469//469 455//455 
f 455//455 470//470 471//471 
f 444//444 458//458 442//442 
f 442//442 472//472 473//473 
f 461//461 474//474 459//459 
f 464//464 447//447 462//462 
f 465//465 475//475 466//466 
f 452//452 476//476 477//477 
f 454//454 478//478 452//452 
f 471//471 456//456 455//455 
f 455//455 479//479 480//480 
f 473//473 445//445 442//442 
f 442//442 481//481 482//482 
f 483//483 484//484 485//485 
f 483//483 486//486 487//487 
f 483//483 488//488 489//489 
f 483//483 490//490 491//491 
f 490//490 483//483 459//459 
f 449//449 462//462 447//447 
f 467//467 492//492 465//465 
f 478//478 476//476 452//452 
f 480//480 470//470 455//455 
f 482//482 472//472 442//442 
f 487//487 484//484 483//483 
f 483//483 493//493 488//488 
f 474//474 490//490 459//459 
f 492//492 463//463 465//465 
f 465//465 494//494 495//495 
f 469//469 452//452 455//455 
f 442//442 496//496 481//481 
f 442//442 483//483 497//497 
f 485//485 498//498 483//483 
f 491//491 493//493 483//483 
f 495//495 475//475 465//465 
f 479//479 499//499 500//500 
f 477//477 455//455 452//452 
f 497//497 496//496 442//442 
f 489//489 486//486 483//483 
f 465//465 500//500 494//494 
f 455//455 499//499 479//479 
f 465//465 483//483 442//442 
f 498//498 497//497 483//483 
f 500//500 465//465 479//479 
f 439//439 442//442 437//437 
f 442//442 479//479 465//465 
f 462//462 465//465 463//463 
v 0.01 0.0075 -0.012 
v 0.01 0 -0.012 
v 0.00998357 0 -0.0123136 
v 0.00998357 0.0075 -0.0123136 
v 0.00993444 0 -0.0126237 
v 0.00993444 0.0075 -0.0126237 
v 0.00985317 0 -0.0129271 
v 0.00985317 0.0075 -0.0129271 
v 0.00974064 0 -0.0132202 
v 0.00974064 0.0075 -0.0132202 
v 0.00959808 0 -0.0135 
v 0.00959808 0.0075 -0.0135 
v 0.00942705 0 -0.0137634 
v 0.00942705 0.0075 -0.0137634 
v 0.00922943 0 -0.0140074 
v 0.00922943 0.0075 -0.0140074 
v 0.00900739 0 -0.0142294 
v 0.00900739 0.0075 -0.0142294 
v 0.00876336 0 -0.0144271 
v 0.00876336 0.0075 -0.0144271 
v 0.0085 0 -0.0145981 
v 0.0085 0.0075 -0.0145981 
v 0.00822021 0 -0.0147406 
v 0.00822021 0.0075 -0.0147406 
v 0.00792705 0 -0.0148532 
v 0.00792705 0.0075 -0.0148532 
v 0.00762374 0 -0.0149344 
v 0.00762374 0.0075 -0.0149344 
v 0.00731359 0 -0.0149836 
v 0.00731359 0.0075 -0.0149836 
v 0.007 0 -0.015 
v 0.007 0.0075 -0.015 
vn 1 0 0 
vn 1 0 0 
vn 0.994522 0 -0.104528 
vn 0.994522 0 -0.104528 
vn 0.978148 0 -0.207912 
vn 0.978148 0 -0.207912 
vn 0.951057 0 -0.309017 
vn 0.951057 0 -0.309017 
vn 0.913545 0 -0.406737 
vn 0.913545 0 -0.406737 
vn 0.866025 0 -0.5 
vn 0.866025 0 -0.5 
vn 0.809017 0 -0.587785 
vn 0.809017 0 -0.587785 
vn 0.743145 0 -0.669131 
vn 0.743145 0 -0.669131 
vn 0.669131 0 -0.743145 
vn 0.669131 0 -0.743145 
vn 0.587785 0 -0.809017 
vn 0.587785 0 -0.809017 
vn 0.5 0 -0.866025 
vn 0.5 0 -0.866025 
vn 0.406737 0 -0.913545 
vn 0.406737 0 -0.913545 
vn 0.309017 0 -0.951057 
vn 0.309017 0 -0.951057 
vn 0.207912 0 -0.978148 
vn 0.207912 0 -0.978148 
vn 0.104528 0 -0.994522 
vn 0.104528 0 -0.994522 
vn 0 0 -1 
vn 0 0 -1 
f 501//501 502//502 503//503 
f 504//504 503//503 505//505 
f 506//506 505//505 507//507 
f 508//508 507//507 509//509 
f 510//510 509//509 511//511 
f 512//512 511//511 513//513 
f 514//514 513//513 515//515 
f 516//516 515//515 517//517 
f 518//518 517//517 519//519 
f 520//520 519//519 521//521 
f 522//522 521//521 523//523 
f 524//524 523//523 525//525 
f 526//526 525//525 527//527 
f 528//528 527//527 529//529 
f 530//530 529//529 531//531 
f 531//531 532//532 530//530 
f 529//529 530//530 528//528 
f 527//527 528//528 526//526 
f 525//525 526//526 524//524 
f 523//523 524//524 522//522 
f 521//521 522//522 520//520 
f 519//519 520//520 518//518 
f 517//517 518//518 516//516 
f 515//515 516//516 514//514 
f 513//513 514//514 512//512 
f 511//511 512//512 510//510 
f 509//509 510//510 508//508 
f 507//507 508//508 506//506 
f 505//505 506//506 504//504 
f 503//503 504//504 501//501 
v 0.007 0.0075 -0.015 
v 0.007 0 -0.015 
v -0.007 0 -0.015 
v -0.007 0.0075 -0.015 
vn 0 0 -1 
vn 0 0 -1 
vn 0 0 -1 
vn 0 0 -1 
f 533//533 534//534 535//535 
f 535//535 536//536 533//533 
v -0.007 0.0075 -0.015 
v -0.007 0 -0.015 
v -0.00731359 0 -0.0149836 
v -0.00731359 0.0075 -0.0149836 
v -0.00762374 0 -0.0149344 
v -0.00762374 0.0075 -0.0149344 
v -0.00792705 0 -0.0148532 
v -0.00792705 0.0075 -0.0148532 
v -0.00822021 0 -0.0147406 
v -0.00822021 0.0075 -0.0147406 
v -0.0085 0 -0.0145981 
v -0.0085 0.0075 -0.0145981 
v -0.00876336 0 -0.0144271 
v -0.00876336 0.0075 -0.0144271 
v -0.00900739 0 -0.0142294 
v -0.00900739 0.0075 -0.0142294 
v -0.00922943 0 -0.0140074 
v -0.00922943 0.0075 -0.0140074 
v -0.00942705 0 -0.0137634 
v -0.00942705 0.0075 -0.0137634 
v -0.00959808 0 -0.0135 
v -0.00959808 0.0075 -0.0135 
v -0.00974064 0 -0.0132202 
v -0.00974064 0.0075 -0.0132202 
v -0.00985317 0 -0.0129271 
v -0.00985317 0.0075 -0.0129271 
v -0.00993444 0 -0.0126237 
v -0.00993444 0.0075 -0.0126237 
v -0.00998357 0 -0.0123136 
v -0.00998357 0.0075 -0.0123136 
v -0.01 0 -0.012 
v -0.01 0.0075 -0.012 
vn 0 0 -1 
vn 0 0 -1 
vn -0.104528 0 -0.994522 
vn -0.104528 0 -0.994522 
vn -0.207912 0 -0.978148 
vn -0.207912 0 -0.978148 
vn -0.309017 0 -0.951057 
vn -0.309017 0 -0.951057 
vn -0.406737 0 -0.913545 
vn -0.406737 0 -0.913545 
vn -0.5 0 -0.866025 
vn -0.5 0 -0.866025 
vn -0.587785 0 -0.809017 
vn -0.587785 0 -0.809017 
vn -0.669131 0 -0.743145 
vn -0.669131 0 -0.743145 
vn -0.743145 0 -0.669131 
vn -0.743145 0 -0.669131 
vn -0.809017 0 -0.587785 
vn -0.809017 0 -0.587785 
vn -0.866025 0 -0.5 
vn -0.866025 0 -0.5 
vn -0.913545 0 -0.406737 
vn -0.913545 0 -0.406737 
vn -0.951057 0 -0.309017 
vn -0.951057 0 -0.309017 
vn -0.978148 0 -0.207912 
vn -0.978148 0 -0.207912 
vn -0.994522 0 -0.104528 
vn -0.994522 0 -0.104528 
vn -1 0 0 
vn -1 0 0 
f 537//537 538//538 539//539 
f 540//540 539//539 541//541 
f 542//542 541//541 543//543 
f 544//544 543//543 545//545 
f 546//546 545//545 547//547 
f 548//548 547//547 549//549 
f 550//550 549//549 551//551 
f 552//552 551//551 553//553 
f 554//554 553//553 555//555 
f 556//556 555//555 557//557 
f 558//558 557//557 559//559 
f 560//560 559//559 561//561 
f 562//562 561//561 563//563 
f 564//564 563//563 565//565 
f 566//566 565//565 567//567 
f 567//567 568//568 566//566 
f 565//565 566//566 564//564 
f 563//563 564//564 562//562 
f 561//561 562//562 560//560 
f 559//559 560//560 558//558 
f 557//557 558//558 556//556 
f 555//555 556//556 554//554 
f 553//553 554//554 552//552 
f 551//551 552//552 550//550 
f 549//549 550//550 548//548 
f 547//547 548//548 546//546 
f 545//545 546//546 544//544 
f 543//543 544//544 542//542 
f 541//541 542//542 540//540 
f 539//539 540//540 537//537 
